<?xml version="1.0" encoding="UTF-8"?>
<!DOCTYPE svg PUBLIC "-//W3C//DTD SVG 1.1//EN" "http://www.w3.org/Graphics/SVG/1.1/DTD/svg11.dtd">
<svg xmlns="http://www.w3.org/2000/svg" version="1.1" width="270px" height="373px" style="shape-rendering:geometricPrecision; text-rendering:geometricPrecision; image-rendering:optimizeQuality; fill-rule:evenodd; clip-rule:evenodd" xmlns:xlink="http://www.w3.org/1999/xlink">
<g><path style="opacity:0.973" fill="#7b7c7b" d="M 75.5,-0.5 C 85.1667,-0.5 94.8333,-0.5 104.5,-0.5C 111.825,2.11824 115.158,7.45157 114.5,15.5C 114.897,22.5561 111.897,27.3894 105.5,30C 96.0519,30.0428 86.7186,31.0428 77.5,33C 71.5082,35.6587 67.6748,40.1587 66,46.5C 64.9856,83.4956 63.9856,120.496 63,157.5C 62.2576,170.721 56.091,180.388 44.5,186.5C 56.0556,192.587 62.2222,202.254 63,215.5C 64.2607,249.478 64.9274,283.478 65,317.5C 64.2009,330.441 70.0342,338.274 82.5,341C 90.484,341.856 98.484,342.523 106.5,343C 110.77,344.679 113.27,347.845 114,352.5C 114.913,358.042 114.246,363.375 112,368.5C 110.603,370.07 109.103,371.404 107.5,372.5C 94.5,372.5 81.5,372.5 68.5,372.5C 47.7391,367.57 35.2391,354.57 31,333.5C 30.6667,301.5 30.3333,269.5 30,237.5C 30.0509,228.467 28.3843,219.8 25,211.5C 19.5649,206.124 13.0649,202.624 5.5,201C 2.02657,198.207 0.0265665,194.707 -0.5,190.5C -0.5,187.833 -0.5,185.167 -0.5,182.5C 0.465044,179.074 2.13171,175.907 4.5,173C 9.31888,170.545 14.3189,168.545 19.5,167C 24.2341,163.699 27.0674,159.199 28,153.5C 28.9968,147.539 29.6635,141.539 30,135.5C 30.3333,103.5 30.6667,71.5 31,39.5C 36.2179,15.4479 51.0513,2.11455 75.5,-0.5 Z"/></g>
<g><path style="opacity:0.973" fill="#7b7c7b" d="M 164.5,-0.5 C 173.833,-0.5 183.167,-0.5 192.5,-0.5C 217.459,1.62234 232.626,14.9557 238,39.5C 238.333,71.5 238.667,103.5 239,135.5C 239.311,141.874 239.977,148.207 241,154.5C 242.267,158.869 244.433,162.703 247.5,166C 252.72,168.305 258.053,170.305 263.5,172C 266.726,174.893 268.726,178.393 269.5,182.5C 269.5,185.167 269.5,187.833 269.5,190.5C 268.535,193.926 266.868,197.093 264.5,200C 259.249,202.528 253.916,204.861 248.5,207C 244.339,210.154 241.839,214.321 241,219.5C 240.003,225.461 239.337,231.461 239,237.5C 238.667,269.5 238.333,301.5 238,333.5C 233.797,354.535 221.297,367.535 200.5,372.5C 187.5,372.5 174.5,372.5 161.5,372.5C 154.827,367.131 152.66,360.131 155,351.5C 155.73,347.104 158.23,344.27 162.5,343C 172.989,342.684 183.323,341.35 193.5,339C 200.813,334.208 204.313,327.375 204,318.5C 204.071,283.811 204.738,249.145 206,214.5C 206.93,201.624 213.097,192.29 224.5,186.5C 213.1,180.718 206.933,171.384 206,158.5C 205.014,121.162 204.014,83.829 203,46.5C 201.325,40.1587 197.492,35.6587 191.5,33C 182.281,31.0428 172.948,30.0428 163.5,30C 159,28.8333 156.167,26 155,21.5C 154.333,17.1667 154.333,12.8333 155,8.5C 156.75,3.91471 159.916,0.914709 164.5,-0.5 Z"/></g>
</svg>
